<?xml version="1.0" encoding="iso-8859-1"?>
<!-- Generator: Adobe Illustrator 19.0.0, SVG Export Plug-In . SVG Version: 6.00 Build 0)  -->
<svg version="1.1" id="Capa_1" xmlns="http://www.w3.org/2000/svg" xmlns:xlink="http://www.w3.org/1999/xlink" x="0px" y="0px"
	 viewBox="0 0 511.768 511.768" style="enable-background:new 0 0 511.768 511.768;" xml:space="preserve">
<path style="fill:#D7E9FF;" d="M339.847,107.951c0,0,47.978,31.986,47.978,111.949c0,79.964-47.978,111.948-47.978,111.948H99.956
	c0,0,47.978-31.984,47.978-111.948c0-79.963-47.978-111.949-47.978-111.949S339.847,107.951,339.847,107.951z"/>
<path style="fill:#FFFFFF;" d="M163.927,219.901c0-79.963-47.979-111.949-47.979-111.949H99.956c0,0,47.978,31.986,47.978,111.949
	c0,79.964-47.978,111.948-47.978,111.948h15.992C115.948,331.849,163.927,299.864,163.927,219.901z"/>
<g>
	<path style="fill:#94C1FF;" d="M387.824,219.901c0-79.963-47.978-111.949-47.978-111.949h-15.992c0,0,47.978,31.986,47.978,111.949
		c0,79.964-47.978,111.948-47.978,111.948h15.993C339.847,331.849,387.824,299.864,387.824,219.901z"/>
	<rect x="243.894" y="51.974" style="fill:#94C1FF;" width="47.974" height="15.993"/>
	<polygon style="fill:#94C1FF;" points="347.843,75.966 282.544,75.966 298.537,59.974 347.843,59.974 339.847,67.97 	"/>
</g>
<g>
	<path style="fill:#3A3847;" d="M108.195,423.807c-2.206,0-4.037-1.788-4.037-3.998s1.749-3.998,3.959-3.998h0.078
		c2.21,0,3.998,1.788,3.998,3.998S110.405,423.807,108.195,423.807z"/>
	<path style="fill:#3A3847;" d="M140.18,423.807c-2.206,0-4.037-1.788-4.037-3.998s1.749-3.998,3.959-3.998h0.078
		c2.21,0,3.998,1.788,3.998,3.998S142.39,423.807,140.18,423.807z"/>
	<path style="fill:#3A3847;" d="M172.165,423.807c-2.206,0-4.037-1.788-4.037-3.998s1.749-3.998,3.959-3.998h0.078
		c2.21,0,3.998,1.788,3.998,3.998S174.375,423.807,172.165,423.807z"/>
	<path style="fill:#3A3847;" d="M204.151,423.807c-2.206,0-4.037-1.788-4.037-3.998s1.749-3.998,3.959-3.998h0.078
		c2.21,0,3.998,1.788,3.998,3.998S206.361,423.807,204.151,423.807z"/>
	<path style="fill:#3A3847;" d="M236.136,423.807c-2.206,0-4.037-1.788-4.037-3.998s1.749-3.998,3.959-3.998h0.078
		c2.21,0,3.998,1.788,3.998,3.998S238.346,423.807,236.136,423.807z"/>
	<path style="fill:#3A3847;" d="M268.121,423.807c-2.21,0-4.037-1.788-4.037-3.998s1.749-3.998,3.951-3.998h0.086
		c2.202,0,3.998,1.788,3.998,3.998S270.323,423.807,268.121,423.807z"/>
	<path style="fill:#3A3847;" d="M300.107,423.807c-2.21,0-4.037-1.788-4.037-3.998s1.749-3.998,3.951-3.998h0.086
		c2.202,0,3.998,1.788,3.998,3.998S302.309,423.807,300.107,423.807z"/>
	<path style="fill:#3A3847;" d="M332.092,423.807c-2.21,0-4.037-1.788-4.037-3.998s1.749-3.998,3.951-3.998h0.086
		c2.202,0,3.998,1.788,3.998,3.998S334.294,423.807,332.092,423.807z"/>
</g>
<path style="fill:#94C1FF;" d="M147.934,355.838l7.997,15.993h215.9l55.975-32.923v16.93v23.989c0,0,0.156,63.971-87.959,95.956
	H67.971v-23.669c0-24.309-31.985-32.306-31.985-32.306l-11.995-15.992v-13.135L4,387.823v-31.985l5.997,0.906v-8.902L4,331.849
	h31.985v7.997l47.978,7.996v7.996L147.934,355.838L147.934,355.838z"/>
<g>
	<path style="fill:#D7E9FF;" d="M243.89,179.919c4.396,0,7.997,3.6,7.997,7.996s-3.601,7.996-7.997,7.996s-7.997-3.6-7.997-7.996
		S239.494,179.919,243.89,179.919z"/>
	<path style="fill:#D7E9FF;" d="M275.876,179.919c4.396,0,7.996,3.6,7.996,7.996s-3.601,7.996-7.996,7.996
		c-4.396,0-7.997-3.6-7.997-7.996S271.48,179.919,275.876,179.919z"/>
</g>
<path style="fill:#FFFFFF;" d="M243.89,195.911c4.396,0,7.997-3.6,7.997-7.996s-3.601-7.996-7.997-7.996s-7.997,3.6-7.997,7.996
	S239.494,195.911,243.89,195.911z M275.876,195.911c4.396,0,7.996-3.6,7.996-7.996s-3.601-7.996-7.996-7.996
	c-4.396,0-7.997,3.6-7.997,7.996S271.48,195.911,275.876,195.911z M283.872,237.494v14.392h-15.993h-15.992h-15.993v-14.392
	c-14.313-8.317-23.989-23.829-23.989-41.583c0-26.468,21.509-47.978,47.978-47.978c26.464,0,47.978,21.509,47.978,47.978
	C307.861,213.665,298.186,229.177,283.872,237.494z"/>
<polygon style="fill:#5C9EFF;" points="371.831,371.831 338.347,371.831 499.773,283.871 507.77,291.867 "/>
<polygon style="fill:#94C1FF;" points="59.974,395.82 4,387.823 4,355.838 51.978,362.71 "/>
<path style="fill:#D7E9FF;" d="M43.857,415.436l-11.869-11.619v-13.135l-19.991-2.858v-31.985l5.997,0.906v-8.902l-5.997-15.993H4
	l5.997,15.993v8.902L4,355.839v31.985l19.991,2.858v13.135l11.995,15.992c0,0,31.985,7.997,31.985,32.306v23.669h7.996v-23.67
	C75.967,427.806,43.857,415.436,43.857,415.436z"/>
<g>
	<polygon style="fill:#5C9EFF;" points="420.7,343.844 420.372,343.281 419.419,343.844 	"/>
	<path style="fill:#5C9EFF;" d="M395.212,419.832c-10.816,13.893-28.69,28.776-58.231,39.958H67.971v15.993h271.876
		c34.991-12.705,56.052-30.439,68.733-47.213L395.212,419.832z"/>
</g>
<g>
	<path style="fill:#116FFF;" d="M339.847,479.781H67.971c-2.21,0-3.998-1.788-3.998-3.998s1.788-3.998,3.998-3.998h271.876
		c2.209,0,3.998,1.788,3.998,3.998S342.056,479.781,339.847,479.781z"/>
	<path style="fill:#116FFF;" d="M67.971,479.781c-2.21,0-3.998-1.788-3.998-3.998v-23.669c0-2.21,1.788-3.998,3.998-3.998
		s3.998,1.788,3.998,3.998v23.669C71.969,477.993,70.181,479.781,67.971,479.781z"/>
	<path style="fill:#116FFF;" d="M339.847,479.781c-1.633,0-3.171-1.007-3.757-2.64c-0.757-2.069,0.32-4.365,2.39-5.122
		c84.5-30.666,85.328-91.567,85.328-92.185c-0.008-2.21,1.78-4.006,3.99-4.006h0.008c2.202,0,3.99,1.78,3.998,3.99
		c0.008,2.726-0.866,67.148-90.591,99.728C340.76,479.703,340.299,479.781,339.847,479.781z"/>
	<path style="fill:#116FFF;" d="M336.731,463.788H83.963c-2.209,0-3.998-1.787-3.998-3.998c0-2.209,1.789-3.998,3.998-3.998h252.033
		c24.599-9.417,43.449-22.349,56.037-38.451c1.358-1.749,3.881-2.038,5.606-0.687c1.742,1.366,2.054,3.873,0.688,5.622
		c-13.611,17.414-33.859,31.298-60.184,41.255C337.691,463.702,337.215,463.788,336.731,463.788z"/>
	<path style="fill:#116FFF;" d="M371.831,375.829c-1.366,0-2.701-0.703-3.443-1.968c-1.125-1.905-0.484-4.357,1.414-5.482
		l135.938-79.963c1.897-1.117,4.35-0.484,5.474,1.421s0.484,4.357-1.413,5.482l-135.938,79.963
		C373.222,375.657,372.527,375.829,371.831,375.829z"/>
	<path style="fill:#116FFF;" d="M67.971,456.113c-2.21,0-3.998-1.788-3.998-3.998c0-20.943-28.667-28.354-28.956-28.432
		c-2.144-0.531-3.447-2.702-2.908-4.842c0.531-2.147,2.702-3.452,4.845-2.905c1.433,0.352,35.015,9.059,35.015,36.179
		C71.969,454.324,70.181,456.113,67.971,456.113z"/>
	<path style="fill:#116FFF;" d="M9.997,351.84c-1.616,0-3.143-0.983-3.744-2.593l-5.998-15.992
		c-0.773-2.069,0.273-4.373,2.339-5.154c2.069-0.758,4.377,0.266,5.15,2.343l5.997,15.993c0.773,2.068-0.273,4.373-2.339,5.153
		C10.938,351.762,10.466,351.84,9.997,351.84z"/>
	<path style="fill:#116FFF;" d="M35.989,423.807c-1.218,0-2.417-0.546-3.202-1.601l-11.994-15.992c-1.328-1.766-0.968-4.271,0.8-5.6
		c1.765-1.319,4.271-0.968,5.595,0.805l11.994,15.992c1.328,1.766,0.969,4.271-0.8,5.6
		C37.664,423.542,36.825,423.807,35.989,423.807z"/>
	<path style="fill:#116FFF;" d="M59.978,399.818c-0.187,0-0.378-0.016-0.57-0.039l-55.974-7.997
		c-2.187-0.312-3.705-2.334-3.393-4.521c0.316-2.186,2.358-3.686,4.525-3.396l55.974,7.996c2.187,0.312,3.706,2.335,3.394,4.521
		C63.649,398.381,61.939,399.818,59.978,399.818z"/>
	<path style="fill:#116FFF;" d="M51.982,366.708c-0.187,0-0.375-0.008-0.566-0.031l-43.261-6.161
		c-0.258-0.039-0.508-0.102-0.742-0.18l-3.951-0.531c-2.187-0.296-3.721-2.312-3.424-4.505c0.3-2.188,2.319-3.679,4.501-3.429
		l4.717,0.641c0.273,0.047,0.539,0.109,0.789,0.195l42.496,6.052c2.187,0.312,3.705,2.327,3.397,4.514
		C55.653,365.272,53.942,366.708,51.982,366.708z"/>
	<path style="fill:#116FFF;" d="M4,391.822c-2.21,0-3.998-1.788-3.998-3.998v-31.985c0-2.21,1.788-3.998,3.998-3.998
		s3.998,1.788,3.998,3.998v31.985C7.998,390.033,6.21,391.822,4,391.822z"/>
	<path style="fill:#116FFF;" d="M35.986,335.847H4c-2.21,0-3.998-1.787-3.998-3.998c0-2.209,1.788-3.998,3.998-3.998h31.985
		c2.21,0,3.998,1.789,3.998,3.998C39.984,334.06,38.196,335.847,35.986,335.847z"/>
	<path style="fill:#116FFF;" d="M35.986,343.844c-2.21,0-3.998-1.788-3.998-3.998v-7.997c0-2.209,1.788-3.998,3.998-3.998
		s3.998,1.789,3.998,3.998v7.997C39.984,342.056,38.196,343.844,35.986,343.844z"/>
	<path style="fill:#116FFF;" d="M83.967,351.84c-0.218,0-0.437-0.016-0.659-0.055l-47.979-7.996c-2.179-0.367-3.65-2.421-3.287-4.6
		c0.363-2.179,2.432-3.678,4.599-3.288l47.978,7.997c2.179,0.366,3.65,2.421,3.288,4.599C87.583,350.45,85.888,351.84,83.967,351.84
		z"/>
	<path style="fill:#116FFF;" d="M83.963,359.836c-2.209,0-3.998-1.788-3.998-3.998v-7.996c0-2.21,1.789-3.998,3.998-3.998
		c2.21,0,3.999,1.788,3.999,3.998v7.996C87.962,358.048,86.173,359.836,83.963,359.836z"/>
	<path style="fill:#116FFF;" d="M147.934,359.836H83.963c-2.209,0-3.998-1.788-3.998-3.998s1.789-3.998,3.998-3.998h63.971
		c2.209,0,3.998,1.788,3.998,3.998S150.144,359.836,147.934,359.836z"/>
	<path style="fill:#116FFF;" d="M155.935,375.829c-1.469,0-2.878-0.812-3.581-2.21l-7.996-15.993
		c-0.988-1.976-0.188-4.381,1.788-5.364c1.972-0.984,4.377-0.188,5.365,1.788l7.996,15.992c0.988,1.977,0.188,4.381-1.788,5.365
		C157.145,375.689,156.535,375.829,155.935,375.829z"/>
	<path style="fill:#116FFF;" d="M371.831,375.829h-215.9c-2.21,0-3.999-1.788-3.999-3.998s1.789-3.998,3.999-3.998h215.9
		c2.211,0,3.998,1.788,3.998,3.998S374.042,375.829,371.831,375.829z"/>
	<path style="fill:#116FFF;" d="M367.435,359.836c-1.413,0-2.787-0.749-3.514-2.093c-1.054-1.937-0.336-4.357,1.602-5.419
		l132.337-71.968c1.937-1.038,4.373-0.343,5.428,1.609c1.054,1.937,0.336,4.357-1.601,5.419l-132.338,71.968
		C368.739,359.681,368.083,359.836,367.435,359.836z"/>
	<path style="fill:#116FFF;" d="M339.855,335.847c-1.289,0-2.555-0.624-3.327-1.779c-1.226-1.828-0.734-4.311,1.093-5.545
		c0.461-0.305,46.206-31.946,46.206-108.622c0-76.934-45.737-108.313-46.198-108.622c-1.835-1.226-2.334-3.706-1.108-5.544
		c1.233-1.839,3.717-2.327,5.544-1.109c2.031,1.354,49.759,34.105,49.759,115.275c0,81.166-47.728,113.917-49.759,115.275
		C341.385,335.629,340.612,335.847,339.855,335.847z"/>
	<path style="fill:#116FFF;" d="M99.964,335.847c-1.289,0-2.554-0.624-3.327-1.779c-1.226-1.828-0.734-4.311,1.093-5.545
		c0.465-0.305,46.205-31.946,46.205-108.622c0-76.934-45.736-108.313-46.197-108.622c-1.839-1.226-2.335-3.706-1.109-5.544
		c1.222-1.843,3.694-2.331,5.544-1.109c2.03,1.354,49.758,34.105,49.758,115.275c0,81.166-47.728,113.917-49.758,115.275
		C101.494,335.629,100.725,335.847,99.964,335.847z"/>
	<path style="fill:#116FFF;" d="M291.868,55.976h-39.981c-2.21,0-3.999-1.789-3.999-3.999c0-2.209,1.789-3.998,3.999-3.998h39.981
		c2.21,0,3.998,1.789,3.998,3.998C295.866,54.187,294.078,55.976,291.868,55.976z"/>
	<path style="fill:#116FFF;" d="M291.868,71.968h-39.981c-2.21,0-3.999-1.788-3.999-3.998s1.789-3.998,3.999-3.998h39.981
		c2.21,0,3.998,1.788,3.998,3.998S294.078,71.968,291.868,71.968z"/>
	<path style="fill:#116FFF;" d="M347.843,63.972h-47.979c-2.21,0-3.998-1.788-3.998-3.998s1.788-3.998,3.998-3.998h47.979
		c2.21,0,3.998,1.788,3.998,3.998S350.053,63.972,347.843,63.972z"/>
	<path style="fill:#116FFF;" d="M347.843,79.965h-63.971c-2.21,0-3.998-1.789-3.998-3.999c0-2.209,1.788-3.998,3.998-3.998h63.971
		c2.21,0,3.998,1.789,3.998,3.998C351.841,78.176,350.053,79.965,347.843,79.965z"/>
	<path style="fill:#116FFF;" d="M347.843,79.965c-1.023,0-2.046-0.39-2.827-1.171l-7.996-7.996c-1.562-1.562-1.562-4.092,0-5.654
		s4.092-1.562,5.653,0l7.996,7.997c1.562,1.562,1.562,4.092,0,5.653C349.889,79.574,348.865,79.965,347.843,79.965z"/>
	<path style="fill:#116FFF;" d="M339.847,71.968c-1.094,0-2.18-0.445-2.968-1.323c-1.483-1.64-1.351-4.166,0.289-5.646l8.878-7.997
		c1.641-1.476,4.162-1.347,5.646,0.297c1.483,1.64,1.351,4.166-0.289,5.646l-8.879,7.997
		C341.759,71.629,340.799,71.968,339.847,71.968z"/>
	<path style="fill:#116FFF;" d="M339.847,111.95H99.956c-2.21,0-3.998-1.789-3.998-3.999c0-2.209,1.788-3.998,3.998-3.998h239.891
		c2.209,0,3.998,1.789,3.998,3.998C343.845,110.161,342.056,111.95,339.847,111.95z"/>
	<path style="fill:#116FFF;" d="M339.847,335.847H99.956c-2.21,0-3.998-1.787-3.998-3.998c0-2.209,1.788-3.998,3.998-3.998h239.891
		c2.209,0,3.998,1.789,3.998,3.998C343.845,334.06,342.056,335.847,339.847,335.847z"/>
	<path style="fill:#116FFF;" d="M243.89,367.833c-2.21,0-3.999-1.789-3.999-3.998v-23.989c0-2.21,1.789-3.999,3.999-3.999
		c2.209,0,3.998,1.789,3.998,3.999v23.989C247.888,366.044,246.1,367.833,243.89,367.833z"/>
	<path style="fill:#116FFF;" d="M243.89,103.953c-2.21,0-3.999-1.788-3.999-3.998v-63.97c0-2.21,1.789-3.998,3.999-3.998
		c2.209,0,3.998,1.788,3.998,3.998v63.971C247.888,102.165,246.1,103.953,243.89,103.953z"/>
	<path style="fill:#116FFF;" d="M251.887,95.957h-15.993c-2.21,0-3.998-1.788-3.998-3.998s1.788-3.998,3.998-3.998h15.993
		c2.209,0,3.998,1.788,3.998,3.998S254.096,95.957,251.887,95.957z"/>
	<path style="fill:#116FFF;" d="M427.806,383.825c-2.21,0-3.998-1.788-3.998-3.998v-23.989c0-2.21,1.788-3.998,3.998-3.998
		s3.998,1.788,3.998,3.998v23.989C431.804,382.037,430.016,383.825,427.806,383.825z"/>
	<path style="fill:#116FFF;" d="M283.872,241.492c-1.375,0-2.718-0.711-3.46-1.991c-1.108-1.91-0.46-4.354,1.452-5.463
		c13.572-7.887,21.998-22.493,21.998-38.127c0-24.25-19.732-43.979-43.979-43.979c-24.251,0-43.98,19.729-43.98,43.979
		c0,15.634,8.43,30.24,21.998,38.127c1.909,1.109,2.562,3.553,1.449,5.463c-1.105,1.913-3.565,2.557-5.462,1.448
		c-16.028-9.308-25.98-26.566-25.98-45.038c0-28.659,23.317-51.976,51.977-51.976s51.976,23.317,51.976,51.976
		c0,18.472-9.956,35.73-25.979,45.038C285.246,241.317,284.559,241.492,283.872,241.492z"/>
	<path style="fill:#116FFF;" d="M235.894,255.884c-2.21,0-3.998-1.788-3.998-3.998v-14.392c0-2.21,1.788-3.999,3.998-3.999
		s3.998,1.789,3.998,3.999v14.392C239.892,254.096,238.104,255.884,235.894,255.884z"/>
	<path style="fill:#116FFF;" d="M283.872,255.884h-47.978c-2.21,0-3.998-1.788-3.998-3.998s1.788-3.998,3.998-3.998h47.979
		c2.21,0,3.998,1.788,3.998,3.998S286.082,255.884,283.872,255.884z"/>
	<path style="fill:#116FFF;" d="M283.872,255.884c-2.21,0-3.998-1.788-3.998-3.998v-14.392c0-2.21,1.788-3.999,3.998-3.999
		s3.998,1.789,3.998,3.999v14.392C287.87,254.096,286.082,255.884,283.872,255.884z"/>
	<path style="fill:#116FFF;" d="M243.89,199.909c-6.614,0-11.995-5.38-11.995-11.994s5.38-11.995,11.995-11.995
		c6.614,0,11.995,5.38,11.995,11.995S250.504,199.909,243.89,199.909z M243.89,183.917c-2.206,0-3.999,1.792-3.999,3.998
		s1.792,3.998,3.999,3.998c2.206,0,3.998-1.792,3.998-3.998S246.096,183.917,243.89,183.917z"/>
	<path style="fill:#116FFF;" d="M275.876,199.909c-6.615,0-11.995-5.38-11.995-11.994s5.38-11.995,11.995-11.995
		c6.613,0,11.994,5.38,11.994,11.995S282.489,199.909,275.876,199.909z M275.876,183.917c-2.203,0-3.999,1.792-3.999,3.998
		s1.796,3.998,3.999,3.998c2.201,0,3.998-1.792,3.998-3.998S278.077,183.917,275.876,183.917z"/>
	<path style="fill:#116FFF;" d="M251.887,223.899c-1.023,0-2.046-0.391-2.827-1.171c-1.562-1.562-1.562-4.092,0-5.654l7.996-7.996
		c1.562-1.562,4.092-1.562,5.654,0c1.562,1.562,1.562,4.092,0,5.653l-7.997,7.997C253.933,223.508,252.909,223.899,251.887,223.899z
		"/>
	<path style="fill:#116FFF;" d="M267.879,223.899c-1.022,0-2.046-0.391-2.827-1.171l-7.996-7.997c-1.562-1.562-1.562-4.092,0-5.653
		c1.562-1.562,4.092-1.562,5.654,0l7.996,7.996c1.562,1.562,1.562,4.092,0,5.654C269.925,223.508,268.903,223.899,267.879,223.899z"
		/>
	<path style="fill:#116FFF;" d="M251.887,255.884c-2.21,0-3.999-1.788-3.999-3.998v-3.998c0-2.21,1.789-3.998,3.999-3.998
		c2.209,0,3.998,1.788,3.998,3.998v3.998C255.885,254.096,254.096,255.884,251.887,255.884z"/>
	<path style="fill:#116FFF;" d="M267.879,255.884c-2.21,0-3.998-1.788-3.998-3.998v-3.998c0-2.21,1.788-3.998,3.998-3.998
		s3.998,1.788,3.998,3.998v3.998C271.877,254.096,270.089,255.884,267.879,255.884z"/>
	<path style="fill:#116FFF;" d="M507.77,295.865c-1.023,0-2.046-0.39-2.827-1.171l-7.996-7.996c-1.562-1.562-1.562-4.092,0-5.654
		c1.562-1.562,4.092-1.562,5.653,0l7.997,7.996c1.562,1.562,1.562,4.092,0,5.654C509.816,295.476,508.792,295.865,507.77,295.865z"
		/>
	<path style="fill:#116FFF;" d="M323.854,296.662c-0.32,0-0.641-0.031-0.968-0.117L194.944,264.56
		c-2.144-0.539-3.447-2.706-2.908-4.846c0.535-2.147,2.694-3.471,4.845-2.908l127.941,31.984c2.148,0.531,3.444,2.702,2.913,4.842
		C327.281,295.46,325.65,296.662,323.854,296.662z"/>
	<path style="fill:#116FFF;" d="M195.908,296.662c-1.792,0-3.42-1.202-3.873-3.03c-0.539-2.14,0.765-4.311,2.908-4.842
		l127.942-31.984c2.092-0.543,4.31,0.761,4.849,2.908c0.531,2.14-0.765,4.307-2.913,4.846L196.88,296.545
		C196.556,296.631,196.229,296.662,195.908,296.662z"/>
	<path style="fill:#116FFF;" d="M291.868,71.968c-2.21,0-3.998-1.788-3.998-3.998V51.977c0-2.209,1.788-3.998,3.998-3.998
		s3.998,1.789,3.998,3.998V67.97C295.866,70.18,294.078,71.968,291.868,71.968z"/>
</g>
<g>
</g>
<g>
</g>
<g>
</g>
<g>
</g>
<g>
</g>
<g>
</g>
<g>
</g>
<g>
</g>
<g>
</g>
<g>
</g>
<g>
</g>
<g>
</g>
<g>
</g>
<g>
</g>
<g>
</g>
</svg>
